:FULLY-SPECIFIED
:FORCE-ALL-JOINTS-BE-3DOF
:DEGREES
917
root 2.70887 16.085 32.4593 2.92807 10.161 3.51348
lfemur -9.30209 5.17551 -1.96581
ltibia 23.3625 -0 0
lfoot -8.48348 -32.868 -0.546868
ltoes 16.0208 -0 0
rfemur -19.8997 -3.34551 -9.23723
rtibia 50.4926 -0 0
rfoot 2.51679 -16.0661 -0.157393
rtoes -14.5228 0 0
lowerback -1.34917 -0.872634 -2.9961
upperback -0.952434 -1.10097 -5.51889
thorax -0.2714 -0.570471 -4.03521
lowerneck -7.00535 -4.12291 -0.95752
upperneck 4.22387 -5.77449 5.75614
head 2.7952 -2.69321 1.75964
lclavicle -2.24875e-015 2.22639e-014 0
lhumerus -53.2599 -37.3397 108.237
lradius 58.959 -0 0
lwrist 15.5961 0 0
lhand 39.5224 24.2069 0.275821
lfingers 7.12502 -0 0
lthumb 61.795 34.3849 -0.0752738
rclavicle -2.24875e-015 2.22639e-014 0
rhumerus -63.7239 37.5568 -94.9931
rradius 122.749 -0 0
rwrist -5.62457 0 0
rhand 26.0337 -4.16161 -3.18266
rfingers 7.12502 -0 0
rthumb 50.1805 -27.3131 -3.3438
918
root 2.62912 16.0593 32.502 3.13415 9.23471 3.71899
lfemur -8.00277 3.28556 -1.09477
ltibia 20.9084 -0 0
lfoot -7.99394 -35.4157 -0.433139
ltoes 16.1129 -0 0
rfemur -19.9971 -3.05953 -9.5268
rtibia 48.7155 -0 0
rfoot 2.42553 -14.8359 -0.104965
rtoes -19.7122 0 0
lowerback -1.65538 -0.812552 -2.98645
upperback -1.01998 -1.00637 -5.79348
thorax -0.168338 -0.522837 -4.32909
lowerneck -7.01604 -3.85116 -0.814929
upperneck 4.20143 -5.42589 5.80426
head 2.77367 -2.51625 1.76809
lclavicle -2.24875e-015 2.22639e-014 0
lhumerus -53.2282 -37.4466 107.873
lradius 58.8009 -0 0
lwrist 15.9207 0 0
lhand 40.3031 24.7732 0.25133
lfingers 7.12502 -0 0
lthumb 62.4565 34.2166 -0.0675309
rclavicle -2.24875e-015 2.22639e-014 0
rhumerus -64.4356 39.1084 -93.7666
rradius 122.525 -0 0
rwrist -5.49916 0 0
rhand 26.2481 -4.75461 -2.95935
rfingers 7.12502 -0 0
rthumb 50.3774 -27.7375 -3.12779
919
root 2.55055 16.0334 32.5426 3.3312 8.33151 3.91373
lfemur -6.76456 1.46782 -0.300596
ltibia 18.5338 -0 0
lfoot -7.57663 -37.7913 -0.312807
ltoes 16.0993 -0 0
rfemur -20.1265 -2.8253 -9.79376
rtibia 47.0368 -0 0
rfoot 2.2988 -13.6143 -0.0582187
rtoes -24.7003 0 0
lowerback -1.94382 -0.755461 -2.97106
upperback -1.08403 -0.917007 -6.05664
thorax -0.071375 -0.477284 -4.61399
lowerneck -7.02547 -3.58344 -0.668207
upperneck 4.17446 -5.08231 5.84499
head 2.75066 -2.34216 1.77302
lclavicle -2.24875e-015 2.22639e-014 0
lhumerus -53.2028 -37.5635 107.529
lradius 58.6443 -0 0
lwrist 16.2499 0 0
lhand 41.043 25.3084 0.220742
lfingers 7.12502 -0 0
lthumb 63.0839 34.0577 -0.0581614
rclavicle -2.24875e-015 2.22639e-014 0
rhumerus -64.7902 40.6095 -92.2459
rradius 122.106 -0 0
rwrist -5.40748 0 0
rhand 26.3044 -5.41149 -2.67567
rfingers 7.12502 -0 0
rthumb 50.4273 -28.2481 -2.84551
920
root 2.47371 16.0075 32.581 3.52041 7.45933 4.09596
lfemur -5.59535 -0.249081 0.415425
ltibia 16.2668 -0 0
lfoot -7.24355 -39.9567 -0.195582
ltoes 15.968 -0 0
rfemur -20.2797 -2.64264 -10.0396
rtibia 45.4736 -0 0
rfoot 2.12759 -12.4231 -0.0190859
rtoes -29.4158 0 0
lowerback -2.21332 -0.701369 -2.94828
upperback -1.1449 -0.833105 -6.30517
thorax 0.0183408 -0.43401 -4.88772
lowerneck -7.0333 -3.32284 -0.518576
upperneck 4.14227 -4.74765 5.87703
head 2.7261 -2.17296 1.77402
lclavicle -2.24875e-015 2.22639e-014 0
lhumerus -53.1896 -37.6897 107.215
lradius 58.4904 -0 0
lwrist 16.5808 0 0
lhand 41.7331 25.8062 0.185467
lfingers 7.12502 -0 0
lthumb 63.6697 33.9114 -0.0476664
rclavicle -2.24875e-015 2.22639e-014 0
rhumerus -64.7224 42.0431 -90.3882
rradius 121.478 -0 0
rwrist -5.35117 0 0
rhand 26.1936 -6.12803 -2.33597
rfingers 7.12502 -0 0
rthumb 50.3216 -28.8435 -2.50014
921
root 2.39917 15.9816 32.6171 3.70307 6.62606 4.26396
lfemur -4.50286 -1.83633 1.05313
ltibia 14.1354 -0 0
lfoot -7.00598 -41.8741 -0.0917016
ltoes 15.707 -0 0
rfemur -20.4481 -2.51127 -10.2657
rtibia 44.0425 -0 0
rfoot 1.90282 -11.2841 0.0106879
rtoes -33.787 0 0
lowerback -2.46271 -0.650277 -2.9165
upperback -1.20284 -0.754899 -6.53593
thorax 0.0996668 -0.393226 -5.14803
lowerneck -7.03921 -3.07246 -0.367255
upperneck 4.10412 -4.4258 5.8991
head 2.69988 -2.0107 1.77068
lclavicle -2.24875e-015 2.22639e-014 0
lhumerus -53.1948 -37.8245 106.941
lradius 58.3404 -0 0
lwrist 16.9103 0 0
lhand 42.3641 26.2606 0.147142
lfingers 7.12502 -0 0
lthumb 64.2062 33.7805 -0.0366255
rclavicle -2.24875e-015 2.22639e-014 0
rhumerus -64.1649 43.385 -88.148
rradius 120.627 -0 0
rwrist -5.33183 0 0
rhand 25.9069 -6.9006 -1.94536
rfingers 7.12502 -0 0
rthumb 50.052 -29.5232 -2.0957
922
root 2.32748 15.9557 32.6505 3.8805 5.83962 4.41599
lfemur -3.49491 -3.26502 1.61319
ltibia 12.1677 -0 0
lfoot -6.87474 -43.5054 -0.011372
ltoes 15.3044 -0 0
rfemur -20.6237 -2.43084 -10.4732
rtibia 42.7606 -0 0
rfoot 1.6153 -10.2193 0.029423
rtoes -37.7427 0 0
lowerback -2.6908 -0.602181 -2.87406
upperback -1.25814 -0.682622 -6.74573
thorax 0.171463 -0.355153 -5.39273
lowerneck -7.0429 -2.83539 -0.215457
upperneck 4.05928 -4.12067 5.9099
head 2.67191 -1.8574 1.76261
lclavicle -2.24875e-015 2.22639e-014 0
lhumerus -53.2245 -37.9672 106.72
lradius 58.1953 -0 0
lwrist 17.2353 0 0
lhand 42.9271 26.6653 0.107558
lfingers 7.12502 -0 0
lthumb 64.6858 33.6684 -0.0256745
rclavicle -2.24875e-015 2.22639e-014 0
rhumerus -63.0511 44.6017 -85.4799
rradius 119.538 -0 0
rwrist -5.3511 0 0
rhand 25.4354 -7.72612 -1.50964
rfingers 7.12502 -0 0
rthumb 49.6097 -30.2873 -1.63708
923
root 2.2592 15.9301 32.6813 4.05409 5.10792 4.55033
lfemur -2.5797 -4.50623 2.09686
ltibia 10.3917 -0 0
lfoot -6.86042 -44.8127 0.0358434
ltoes 14.7481 -0 0
rfemur -20.7981 -2.40094 -10.6635
rtibia 41.6446 -0 0
rfoot 1.25578 -9.25032 0.0353464
rtoes -41.2111 0 0
lowerback -2.89641 -0.557079 -2.81933
upperback -1.31107 -0.616504 -6.93141
thorax 0.232593 -0.320024 -5.6196
lowerneck -7.0441 -2.61474 -0.0643945
upperneck 4.00702 -3.83616 5.90814
head 2.64209 -1.7151 1.7494
lclavicle -2.24875e-015 2.22639e-014 0
lhumerus -53.2852 -38.1171 106.56
lradius 58.0564 -0 0
lwrist 17.5529 0 0
lhand 43.4129 27.0142 0.0685964
lfingers 7.12502 -0 0
lthumb 65.1009 33.5778 -0.0154801
rclavicle -2.24875e-015 2.22639e-014 0
rhumerus -61.3198 45.6479 -82.3438
rradius 118.199 -0 0
rwrist -5.4106 0 0
rhand 24.7704 -8.60202 -1.03528
rfingers 7.12502 -0 0
rthumb 48.9857 -31.1363 -1.13015
924
root 2.1949 15.9047 32.709 4.22527 4.43888 4.66525
lfemur -1.76598 -5.53117 2.50569
ltibia 8.83535 -0 0
lfoot -6.97367 -45.7579 0.0416977
ltoes 14.0262 -0 0
rfemur -20.9633 -2.42111 -10.8378
rtibia 40.7115 -0 0
rfoot 0.81503 -8.39902 0.0263978
rtoes -44.1209 0 0
lowerback -3.07837 -0.514972 -2.75069
upperback -1.3619 -0.556774 -7.08981
thorax 0.281919 -0.288073 -5.82643
lowerneck -7.04259 -2.4136 0.0847222
upperneck 3.94658 -3.57619 5.89255
head 2.61034 -1.58584 1.73064
lclavicle -2.24875e-015 2.22639e-014 0
lhumerus -53.3832 -38.2733 106.475
lradius 57.9247 -0 0
lwrist 17.8599 0 0
lhand 43.8125 27.3012 0.0321432
lfingers 7.12502 -0 0
lthumb 65.4439 33.512 -0.00671013
rclavicle -2.24875e-015 2.22639e-014 0
rhumerus -58.9233 46.4651 -78.7127
rradius 116.593 -0 0
rwrist -5.51197 0 0
rhand 23.903 -9.5262 -0.529452
rfingers 7.12502 -0 0
rthumb 48.1712 -32.0713 -0.581796
925
root 2.13513 15.8796 32.7337 4.39544 3.84042 364.759
lfemur -1.06315 -6.31122 2.8412
ltibia 7.52681 0 0
lfoot -7.2256 -46.3024 0
ltoes 13.1266 0 0
rfemur -21.1112 -2.49084 -10.9972
rtibia 39.9781 0 0
rfoot 0.283837 -7.68699 0
rtoes -46.4005 0 0
lowerback -3.23548 -0.47587 -2.6665
upperback -1.41089 -0.503662 -7.21775
thorax 0.318308 -0.259537 -6.011
lowerneck -7.03814 -2.23507 0.230682
upperneck 3.87724 -3.34467 5.86185
head 2.57656 -1.47165 1.70594
lclavicle -1.85118e-015 0 0
lhumerus -53.5254 -38.4352 106.474
lradius 57.8015 0 0
lwrist 18.1533 0 0
lhand 44.117 27.5203 0
lfingers 7.12502 0 0
lthumb 65.7072 33.474 0
rclavicle -1.85118e-015 0 0
rhumerus -55.8381 46.9807 -74.5842
rradius 114.708 0 0
rwrist -5.65682 0 0
rhand 22.8247 -10.4969 0
rfingers 7.12502 0 0
rthumb 47.1569 -753.094 0
926
root 2.0781 15.8542 32.755 4.56419 3.29934 4.83559
lfemur -0.440736 -6.86515 3.1109
ltibia 6.42184 -0 0
lfoot -7.6319 -46.435 -0.0917503
ltoes 11.9858 -0 0
rfemur -21.2837 -2.64848 -11.1258
rtibia 39.4519 -0 0
rfoot -0.350572 -7.05061 -0.0396168
rtoes -48.1428 0 0
lowerback -3.36222 -0.440847 -2.56462
upperback -1.45578 -0.458505 -7.31883
thorax 0.34139 -0.235336 -6.17778
lowerneck -7.03146 -2.07107 0.38139
upperneck 3.79657 -3.13126 5.81319
head 2.53949 -1.36738 1.6735
lclavicle -1.85118e-015 0 0
lhumerus -53.7058 -38.6156 106.544
lradius 57.683 -0 0
lwrist 18.4513 0 0
lhand 44.3307 27.67 -0.0265333
lfingers 7.12502 -0 0
lthumb 65.8945 33.458 0.00498898
rclavicle -1.85118e-015 0 0
rhumerus -51.9052 47.0341 -69.7561
rradius 112.396 -0 0
rwrist -5.87286 0 0
rhand 21.4016 -11.6049 0.600722
rfingers 7.12502 -0 0
rthumb 45.8157 -34.305 0.667174
927
root 2.02171 15.8278 32.7728 4.73004 2.79569 4.90072
lfemur 0.140835 -7.23978 3.32629
ltibia 5.45145 -0 0
lfoot -8.191 -46.1919 -0.227537
ltoes 10.5673 -0 0
rfemur -21.524 -2.92522 -11.2086
rtibia 39.1187 -0 0
rfoot -1.08771 -6.41277 -0.0841815
rtoes -49.5079 0 0
lowerback -3.45558 -0.410756 -2.44523
upperback -1.49433 -0.422039 -7.39972
thorax 0.352276 -0.216027 -6.33301
lowerneck -7.02341 -1.91141 0.544638
upperneck 3.70339 -2.92303 5.74577
head 2.49821 -1.26648 1.63234
lclavicle -1.85118e-015 0 0
lhumerus -53.9125 -38.8258 106.659
lradius 57.565 -0 0
lwrist 18.772 0 0
lhand 44.4682 27.7566 -0.0471977
lfingers 7.12502 -0 0
lthumb 66.0178 33.4557 0.00896719
rclavicle -1.85118e-015 0 0
rhumerus -47.1415 46.4465 -64.1823
rradius 109.559 -0 0
rwrist -6.18031 0 0
rhand 19.5309 -12.9352 1.30084
rfingers 7.12502 -0 0
rthumb 44.0481 -35.7938 1.44977
928
root 1.96603 15.8005 32.7875 4.89281 2.32721 4.95518
lfemur 0.684766 -7.44892 3.49416
ltibia 4.60646 -0 0
lfoot -8.8892 -45.6059 -0.397079
ltoes 8.89978 -0 0
rfemur -21.8258 -3.30969 -11.248
rtibia 38.9627 -0 0
rfoot -1.91678 -5.77485 -0.130955
rtoes -50.5251 0 0
lowerback -3.51815 -0.385304 -2.3102
upperback -1.52692 -0.393598 -7.46184
thorax 0.352047 -0.20129 -6.47715
lowerneck -7.01402 -1.75607 0.719048
upperneck 3.59884 -2.72003 5.6614
head 2.45314 -1.16888 1.58333
lclavicle -1.85118e-015 0 0
lhumerus -54.1432 -39.0623 106.818
lradius 57.4475 -0 0
lwrist 19.1124 0 0
lhand 44.5355 27.7856 -0.0620972
lfingers 7.12502 -0 0
lthumb 66.0821 33.4665 0.0119407
rclavicle -1.85118e-015 0 0
rhumerus -41.862 45.1259 -58.169
rradius 106.25 -0 0
rwrist -6.56955 0 0
rhand 17.2502 -14.4776 2.06108
rfingers 7.12502 -0 0
rthumb 41.8868 -37.5462 2.30388
